<?xml version="1.0" standalone="no"?><!DOCTYPE svg PUBLIC "-//W3C//DTD SVG 1.1//EN" "http://www.w3.org/Graphics/SVG/1.1/DTD/svg11.dtd"><svg t="1647222785307" class="icon" viewBox="0 0 1024 1024" version="1.1" xmlns="http://www.w3.org/2000/svg" p-id="16367" xmlns:xlink="http://www.w3.org/1999/xlink" width="330" height="330"><defs><style type="text/css"></style></defs><path d="M493.124035 4.909991a39.350928 39.350928 0 0 1 38.07193 0L959.901178 241.339557a39.350928 39.350928 0 0 1 20.155963 34.552936v147.806729a39.350928 39.350928 0 1 1-78.702856 0V298.925451L512 84.572845 121.685717 298.925451v426.147218L512 939.425275l19.835964-10.87798a39.350928 39.350928 0 1 1 38.07093 69.104873l-38.710929 21.434961a39.350928 39.350928 0 0 1-38.07193 0L64.098822 782.659563a39.350928 39.350928 0 0 1-20.155963-34.552936V275.571494a39.350928 39.350928 0 0 1 20.155963-34.232937z" p-id="16368"></path><path d="M959.901178 241.338557a39.350928 39.350928 0 0 1 20.155963 34.552936v472.215134a39.350928 39.350928 0 0 1-20.155963 34.552936l-428.705213 236.427566a39.350928 39.350928 0 0 1-38.07193 0l-38.710929-21.434961a39.350928 39.350928 0 1 1 37.75093-69.744872L512 938.785276l390.314283-214.672605V298.925451L512 84.572845 121.685717 298.925451V423.379223a39.350928 39.350928 0 1 1-78.702856 0V275.891493a39.350928 39.350928 0 0 1 21.115961-34.552936L492.804035 4.910991a39.350928 39.350928 0 0 1 38.07193 0z" p-id="16369"></path><path d="M611.817817 625.893851l117.734784-150.366724h3.198994a71.983868 71.983868 0 1 0-71.983868-71.983868 63.985883 63.985883 0 0 0 2.878995 19.194965l-87.660839 111.975794-115.814788-131.810758a43.189921 43.189921 0 0 0-34.871936-14.396973 42.229922 42.229922 0 0 0-31.992941 18.235966L292.848402 548.470993a71.983868 71.983868 0 1 0 71.983868 71.983868 73.263865 73.263865 0 0 0-2.879995-20.474963l71.344869-101.417813 110.695797 129.891761a43.82992 43.82992 0 0 0 33.912938 14.715973 46.389915 46.389915 0 0 0 31.992941-17.275968z m0 0" p-id="16370"></path></svg>