<svg t="1647223474325" class="icon" viewBox="0 0 1024 1024" version="1.1" xmlns="http://www.w3.org/2000/svg" p-id="4178" width="200" height="200"><path d="M274.88 960.832a32 32 0 0 1-17.024-4.352l-165.12-95.552a31.168 31.168 0 0 1-18.112-28.48v-192a32.32 32.32 0 0 1 21.632-30.272L257.856 517.12a30.208 30.208 0 0 1 17.344-4.352 30.784 30.784 0 0 1 17.28 4.352l165.888 96a31.36 31.36 0 0 1 15.488 33.536v179.584a32 32 0 0 1-15.488 33.92l-166.4 96a32.576 32.576 0 0 1-15.872 4.352z m-136-147.2l105.28 60.928v-117.952L138.88 695.68z m169.152-60.928v120.448l102.4-58.816v-120.448z m-136.384-111.808l101.376 58.432 103.104-59.84-100.864-58.432z m521.6 288l-203.52-407.168-405.376-162.304a22.528 22.528 0 0 1-10.752-6.4 26.88 26.88 0 0 1 11.52-6.4l845.76-282.048a40.704 40.704 0 0 1 9.728-1.792 8.896 8.896 0 0 1 7.616 2.88 17.984 17.984 0 0 1 1.024 15.488l-241.984 845.76a22.784 22.784 0 0 1-5.76 11.52 24.704 24.704 0 0 1-8.256-9.664z m-433.28-577.088l-33.152 9.728 32.512 8.64L540.224 467.2l144.256 288 168.128-590.784z" p-id="4179"></path></svg>