<svg t="1647223588233" class="icon" viewBox="0 0 1024 1024" version="1.1" xmlns="http://www.w3.org/2000/svg" p-id="8261" width="200" height="200"><path d="M501.248 997.376c-5.12 0-10.752-1.536-14.848-4.096l-396.8-228.864c-9.216-5.12-15.36-15.36-15.36-26.112V279.552c0-10.752 5.632-20.48 14.848-26.112L486.4 24.576c4.608-2.56 9.728-4.096 14.848-4.096s10.24 1.536 14.848 4.096l396.8 229.376c9.216 5.12 14.848 15.36 14.848 26.112v344.064l-60.416-40.96V338.944l-338.432 186.88v390.144l115.712-67.072h7.168l0.512 5.632 5.12 56.832-141.824 81.92c-3.584 2.56-8.704 4.096-14.336 4.096z m-366.592-276.992l334.336 193.024v-390.144L134.656 338.432v381.952zM158.72 283.136l342.528 189.44 342.528-189.44-342.528-197.632L158.72 283.136z" p-id="8262"></path><path d="M788.48 777.728L724.48 875.52l-28.16-301.056 261.12 163.328-128.512 16.384 99.84 168.448-39.424 24.064z" p-id="8263"></path></svg>