<svg t="1647223437601" class="icon" viewBox="0 0 1024 1024" version="1.1" xmlns="http://www.w3.org/2000/svg" p-id="3705" width="200" height="200"><path d="M1007.2 586.4l-122.4-70.4V279.2c0-14.4-8-28-20-36l-402.4-232c-12.8-7.2-28-7.2-40.8 0L20 244C8 251.2 0 264.8 0 280.8v464c0 14.4 8 28 20 36.8l401.6 232.8c6.4 4 13.6 5.6 20 5.6 7.2 0 14.4-1.6 20-5.6l185.6-108 131.2 76c5.6 4 11.2 4.8 18.4 4.8 6.4 0 12.8-1.6 17.6-4.8l192-110.4c11.2-6.4 17.6-18.4 17.6-31.2V616c0.8-12-7.2-23.2-16.8-29.6z m-564 340c-0.8 0.8-2.4 0.8-2.4 0L84.8 720c-0.8-0.8-1.6-1.6-1.6-2.4V304.8c0-1.6 0.8-2.4 1.6-2.4L440 96.8c0.8 0 0.8-0.8 1.6-0.8s1.6 0 1.6 0.8l355.2 205.6c0.8 0.8 1.6 1.6 1.6 2.4v165.6c-7.2-0.8-14.4 0.8-20.8 4.8l-192 112c-11.2 6.4-17.6 18.4-17.6 31.2v222.4c0 4.8 0.8 8 2.4 12.8l-128.8 72.8z m509.6-108l-156.8 90.4L640 818.4V637.6l156.8-90.4 156.8 90.4v180.8z" p-id="3706"></path><path d="M717.6 728c0 38.4 32 78.4 78.4 78.4 47.2 0 78.4-40.8 78.4-78.4 0-40-39.2-78.4-78.4-78.4-38.4-0.8-78.4 39.2-78.4 78.4zM772.8 324c-5.6-8.8-14.4-16.8-25.6-20-11.2-2.4-21.6-1.6-32 4L440.8 467.2 166.4 308c-8.8-5.6-20-7.2-32-4-11.2 2.4-20 8.8-25.6 20-5.6 8.8-7.2 20-4 32 2.4 11.2 8.8 20 19.2 25.6l274.4 159.2v313.6c0 23.2 19.2 42.4 42.4 42.4 23.2-0.8 42.4-18.4 42.4-42.4V540l274.4-159.2c20-12 27.2-37.6 15.2-56.8z" p-id="3707"></path></svg>