<?xml version="1.0" standalone="no"?><!DOCTYPE svg PUBLIC "-//W3C//DTD SVG 1.1//EN" "http://www.w3.org/Graphics/SVG/1.1/DTD/svg11.dtd"><svg t="1647221945293" class="icon" viewBox="0 0 1024 1024" version="1.1" xmlns="http://www.w3.org/2000/svg" p-id="4136" xmlns:xlink="http://www.w3.org/1999/xlink" width="200" height="200"><defs><style type="text/css"></style></defs><path d="M435.2 870.4L102.4 691.2V281.6l332.8-179.2 332.8 179.2v237.8496l-1.9456-0.5888a178.1248 178.1248 0 0 1 38.9632 16.3072l26.9824-13.4656 54.2976 54.2976-13.4656 26.9824c6.912 12.1856 12.416 25.2416 16.3328 38.9888L921.6 652.8v76.8l-32.4608 10.8544a178.2016 178.2016 0 0 1-18.5856 42.8544l15.744 31.488L832 869.12l-35.1232-17.5616a177.9712 177.9712 0 0 1-30.8224 11.9808L755.2 896h-76.8l-10.8288-32.4352a177.9712 177.9712 0 0 1-30.8224-12.0064l-35.1488 17.5616-54.2976-54.3232 3.2256-6.5024L435.2 870.4z m301.5424-358.4H696.832l-9.2672 27.776-12.9792 3.6864a152.3968 152.3968 0 0 0-26.9824 10.5728l-6.4 3.4048-11.8528 6.7328-22.7072-11.3408-5.0432 5.0432V563.2l-11.5456 6.2208-11.6224 11.6224 11.3408 22.7072-6.7328 11.8528a152.6272 152.6272 0 0 0-11.8272 26.4448l-2.1504 6.9376-3.6864 12.9792L537.6 671.232v39.9104l27.776 9.3184 3.6864 12.9792c2.944 10.3168 6.9632 20.2752 11.9808 29.696l3.9424 6.9888 7.2448 12.032-13.7984 27.5968 28.2368 28.2112 30.08-15.0272 11.4432 5.7344c6.3488 3.1744 12.9024 5.888 19.6096 8.1664l6.784 2.0992 12.9792 3.6864L696.832 870.4h39.9104l9.3184-27.776 12.9792-3.6864c6.8352-1.9712 13.5168-4.3776 19.968-7.2448l6.4-3.0464 11.4688-5.7088 30.0544 15.0016 28.2112-28.1856-13.7728-27.5712 7.2448-12.0576c5.504-9.1648 10.0352-18.8928 13.5168-29.0304l2.4064-7.68 3.6864-12.9536L896 711.1424V671.232l-27.776-9.2672-3.6864-12.9792a152.3968 152.3968 0 0 0-10.5728-26.9824l-3.4048-6.4-6.7328-11.8528 11.3152-22.7072-28.2112-28.2112-22.6816 11.3408-11.8528-6.7328a152.6272 152.6272 0 0 0-26.4192-11.8016l-6.9376-2.176-12.9792-3.6864L736.7424 512zM129.3568 296.1152l-1.3568 0.768v379.008l294.4 158.5408v-188.5184L268.8 563.2v-192l-139.4432-75.0848zM716.8 614.4a76.8 76.8 0 1 1 0 153.6 76.8 76.8 0 0 1 0-153.6z m0 12.8a64 64 0 1 0 0 128 64 64 0 0 0 0-128z m-435.2-249.1136v177.4592l140.8 75.776v-177.408L281.6 378.0864z m307.2 0l-140.8 75.8272v177.408l100.0192-53.8624-0.7168-1.4592L588.8 534.4768v-156.3904z m152.2432-81.9712L601.6 371.2v150.5024l26.9824 13.4656c12.1856-6.912 25.2416-12.416 38.9888-16.3328L678.4 486.4H742.4v-189.5168l-1.3568-0.768z m-305.8688-12.7744l-137.7536 74.1632L435.2 431.7184l137.7536-74.1888-137.7792-74.1888zM435.2 131.4816L156.3904 281.6l127.5392 68.6592L435.2 268.8l151.2704 81.4592L713.984 281.6 435.2 131.4816z m109.2608 608.9728L512 729.6v-76.8l32.4352-10.8288a178.1248 178.1248 0 0 1 16.3328-38.9888l-7.0144-14.0288-105.7536 56.96v188.5184l110.3616-59.4176-4.0448-8.1408a177.92 177.92 0 0 1-9.856-26.4192z" fill="#666666" p-id="4137"></path></svg>